<svg width="40" height="40" viewBox="0 0 40 40" fill="none" xmlns="http://www.w3.org/2000/svg">
<path fill-rule="evenodd" clip-rule="evenodd" d="M19.3583 1.82509C19.6023 1.96092 19.7938 2.17456 19.9022 2.43193C20.0107 2.6893 20.0298 2.97558 19.9566 3.24509L16.6366 15.4168H28.7499C28.9935 15.4168 29.2318 15.488 29.4355 15.6216C29.6392 15.7552 29.7994 15.9454 29.8964 16.1689C29.9934 16.3923 30.0231 16.6393 29.9816 16.8793C29.9402 17.1194 29.8296 17.3421 29.6633 17.5201L12.1633 36.2701C11.9726 36.4747 11.7189 36.6096 11.4426 36.653C11.1664 36.6964 10.8835 36.646 10.6393 36.5097C10.3951 36.3733 10.2036 36.1591 10.0956 35.9011C9.98753 35.6432 9.9691 35.3564 10.0433 35.0868L13.3633 22.9168H1.24992C1.00632 22.9167 0.76803 22.8455 0.564346 22.7119C0.360661 22.5783 0.200459 22.3881 0.103432 22.1646C0.00640527 21.9412 -0.0232179 21.6943 0.0182044 21.4542C0.0596267 21.2141 0.170289 20.9914 0.336588 20.8134L17.8366 2.06342C18.0272 1.8595 18.2806 1.72524 18.5564 1.68205C18.8321 1.63886 19.1144 1.68921 19.3583 1.82509Z" fill="black"/>
</svg>
